<svg xmlns="http://www.w3.org/2000/svg" width="1920" height="1080"><path d="M1435,710L1743,1022L1749,719Z" fill="#796eb2" stroke="#796eb2" stroke-width="1.51"/><path d="M1435,710L1440,1040L1743,1022Z" fill="#776bb1" stroke="#776bb1" stroke-width="1.51"/><path d="M1618,206L1247,394L1435,710Z" fill="#938ec3" stroke="#938ec3" stroke-width="1.51"/><path d="M1743,1022L1972,640L1749,719Z" fill="#7566ae" stroke="#7566ae" stroke-width="1.51"/><path d="M1440,1040L1506,1403L1743,1022Z" fill="#6e58a6" stroke="#6e58a6" stroke-width="1.51"/><path d="M1435,710L990,1107L1440,1040Z" fill="#7e75b5" stroke="#7e75b5" stroke-width="1.51"/><path d="M1440,1040L990,1107L1506,1403Z" fill="#7462ac" stroke="#7462ac" stroke-width="1.51"/><path d="M1618,206L1435,710L1749,719Z" fill="#897ebb" stroke="#897ebb" stroke-width="1.51"/><path d="M1743,1022L2171,1105L1972,640Z" fill="#6d55a5" stroke="#6d55a5" stroke-width="1.51"/><path d="M2180,1271L2171,1105L1743,1022Z" fill="#62419b" stroke="#62419b" stroke-width="1.51"/><path d="M858,842L990,1107L1435,710Z" fill="#8780bc" stroke="#8780bc" stroke-width="1.51"/><path d="M1972,640L1618,206L1749,719Z" fill="#8676b6" stroke="#8676b6" stroke-width="1.51"/><path d="M1972,640L2178,503L1618,206Z" fill="#8673b6" stroke="#8673b6" stroke-width="1.51"/><path d="M2171,1105L2178,503L1972,640Z" fill="#715aa8" stroke="#715aa8" stroke-width="1.51"/><path d="M2171,1105L2518,653L2178,503Z" fill="#6d52a4" stroke="#6d52a4" stroke-width="1.51"/><path d="M1994,1647L2180,1271L1743,1022Z" fill="#5c3796" stroke="#5c3796" stroke-width="1.51"/><path d="M1247,394L858,842L1435,710Z" fill="#908cc2" stroke="#908cc2" stroke-width="1.51"/><path d="M1506,1403L1994,1647L1743,1022Z" fill="#603f9a" stroke="#603f9a" stroke-width="1.51"/><path d="M1384,1687L1509,1627L1506,1403Z" fill="#61439b" stroke="#61439b" stroke-width="1.51"/><path d="M1618,206L1249,-87L1247,394Z" fill="#a3a1ce" stroke="#a3a1ce" stroke-width="1.51"/><path d="M2193,59L1638,75L1618,206Z" fill="#9b8cc3" stroke="#9b8cc3" stroke-width="1.51"/><path d="M997,1565L1384,1687L1506,1403Z" fill="#684c9f" stroke="#684c9f" stroke-width="1.51"/><path d="M990,1107L997,1565L1506,1403Z" fill="#735aa8" stroke="#735aa8" stroke-width="1.51"/><path d="M858,842L715,960L990,1107Z" fill="#8d83bd" stroke="#8d83bd" stroke-width="1.51"/><path d="M531,576L715,960L858,842Z" fill="#9a97c8" stroke="#9a97c8" stroke-width="1.51"/><path d="M1737,1865L1994,1647L1509,1627Z" fill="#573191" stroke="#573191" stroke-width="1.51"/><path d="M1509,1627L1994,1647L1506,1403Z" fill="#5c3995" stroke="#5c3995" stroke-width="1.51"/><path d="M452,1291L997,1565L990,1107Z" fill="#8269b1" stroke="#8269b1" stroke-width="1.51"/><path d="M2600,948L2171,1105L2180,1271Z" fill="#5c3795" stroke="#5c3795" stroke-width="1.51"/><path d="M2600,948L2518,653L2171,1105Z" fill="#62449c" stroke="#62449c" stroke-width="1.51"/><path d="M2178,503L2193,59L1618,206Z" fill="#8f7cba" stroke="#8f7cba" stroke-width="1.51"/><path d="M1247,394L861,192L858,842Z" fill="#a09dca" stroke="#a09dca" stroke-width="1.51"/><path d="M910,60L861,192L1247,394Z" fill="#aeacd2" stroke="#aeacd2" stroke-width="1.51"/><path d="M997,1565L1015,1696L1384,1687Z" fill="#6c4d9f" stroke="#6c4d9f" stroke-width="1.51"/><path d="M767,1918L1015,1696L997,1565Z" fill="#7354a3" stroke="#7354a3" stroke-width="1.51"/><path d="M767,1918L1737,1865L1384,1687Z" fill="#65479d" stroke="#65479d" stroke-width="1.51"/><path d="M1384,1687L1737,1865L1509,1627Z" fill="#5d3c96" stroke="#5d3c96" stroke-width="1.51"/><path d="M2368,111L2193,59L2178,503Z" fill="#8b71b6" stroke="#8b71b6" stroke-width="1.51"/><path d="M1179,-213L1249,-87L1744,-439Z" fill="#b6b1d7" stroke="#b6b1d7" stroke-width="1.51"/><path d="M1638,75L1249,-87L1618,206Z" fill="#a69fcd" stroke="#a69fcd" stroke-width="1.51"/><path d="M2387,1521L2600,948L2180,1271Z" fill="#54298e" stroke="#54298e" stroke-width="1.51"/><path d="M1994,1647L2387,1521L2180,1271Z" fill="#50208b" stroke="#50208b" stroke-width="1.51"/><path d="M2241,1954L2387,1521L1994,1647Z" fill="#491685" stroke="#491685" stroke-width="1.51"/><path d="M1249,-87L910,60L1247,394Z" fill="#afacd3" stroke="#afacd3" stroke-width="1.51"/><path d="M2445,175L2178,503L2518,653Z" fill="#7d60ab" stroke="#7d60ab" stroke-width="1.51"/><path d="M2445,175L2368,111L2178,503Z" fill="#876cb2" stroke="#876cb2" stroke-width="1.51"/><path d="M530,487L858,842L861,192Z" fill="#a8a5ce" stroke="#a8a5ce" stroke-width="1.51"/><path d="M530,487L531,576L858,842Z" fill="#a5a2cd" stroke="#a5a2cd" stroke-width="1.51"/><path d="M715,960L452,1291L990,1107Z" fill="#8d7cbb" stroke="#8d7cbb" stroke-width="1.51"/><path d="M2948,387L2445,175L2518,653Z" fill="#795ba7" stroke="#795ba7" stroke-width="1.51"/><path d="M751,96L530,487L861,192Z" fill="#b6b6d8" stroke="#b6b6d8" stroke-width="1.51"/><path d="M910,60L751,96L861,192Z" fill="#b9b8d9" stroke="#b9b8d9" stroke-width="1.51"/><path d="M1001,-205L751,96L910,60Z" fill="#bfbddb" stroke="#bfbddb" stroke-width="1.51"/><path d="M1249,-87L1001,-205L910,60Z" fill="#bbb8d9" stroke="#bbb8d9" stroke-width="1.51"/><path d="M1744,-439L1249,-87L1638,75Z" fill="#aea5d0" stroke="#aea5d0" stroke-width="1.51"/><path d="M345,775L715,960L531,576Z" fill="#a1a0cc" stroke="#a1a0cc" stroke-width="1.51"/><path d="M323,1123L452,1291L715,960Z" fill="#9485bf" stroke="#9485bf" stroke-width="1.51"/><path d="M1179,-213L1001,-205L1249,-87Z" fill="#bbb8d9" stroke="#bbb8d9" stroke-width="1.51"/><path d="M329,399L345,775L531,576Z" fill="#b0aed3" stroke="#b0aed3" stroke-width="1.51"/><path d="M329,399L531,576L530,487Z" fill="#b3b2d5" stroke="#b3b2d5" stroke-width="1.51"/><path d="M2387,1521L2843,1162L2600,948Z" fill="#50258b" stroke="#50258b" stroke-width="1.51"/><path d="M1737,1865L2241,1954L1994,1647Z" fill="#50238b" stroke="#50238b" stroke-width="1.51"/><path d="M2600,948L2959,832L2518,653Z" fill="#62459b" stroke="#62459b" stroke-width="1.51"/><path d="M2797,1645L2843,1162L2387,1521Z" fill="#471083" stroke="#471083" stroke-width="1.51"/><path d="M345,775L323,1123L715,960Z" fill="#9c94c6" stroke="#9c94c6" stroke-width="1.51"/><path d="M2193,59L1744,-439L1638,75Z" fill="#a492c7" stroke="#a492c7" stroke-width="1.51"/><path d="M1179,-213L512,-438L1001,-205Z" fill="#c9c5e0" stroke="#c9c5e0" stroke-width="1.51"/><path d="M2024,-513L1744,-439L2193,59Z" fill="#a992c7" stroke="#a992c7" stroke-width="1.51"/><path d="M2024,-513L2193,59L2378,-412Z" fill="#a487c2" stroke="#a487c2" stroke-width="1.51"/><path d="M1015,1696L767,1918L1384,1687Z" fill="#6e4fa1" stroke="#6e4fa1" stroke-width="1.51"/><path d="M1737,1865L767,1918L2241,1954Z" fill="#5c3995" stroke="#5c3995" stroke-width="1.51"/><path d="M452,1291L767,1918L997,1565Z" fill="#7b5ea9" stroke="#7b5ea9" stroke-width="1.51"/><path d="M269,1847L767,1918L452,1291Z" fill="#8365ad" stroke="#8365ad" stroke-width="1.51"/><path d="M-217,999L49,1313L323,1123Z" fill="#a391c6" stroke="#a391c6" stroke-width="1.51"/><path d="M751,96L329,399L530,487Z" fill="#b9b9da" stroke="#b9b9da" stroke-width="1.51"/><path d="M81,43L329,399L751,96Z" fill="#c7c7e2" stroke="#c7c7e2" stroke-width="1.51"/><path d="M2843,1162L2959,832L2600,948Z" fill="#5b3794" stroke="#5b3794" stroke-width="1.51"/><path d="M2241,1954L2797,1645L2387,1521Z" fill="#430780" stroke="#430780" stroke-width="1.51"/><path d="M2843,1162L2927,1507L2959,832Z" fill="#52288d" stroke="#52288d" stroke-width="1.51"/><path d="M2378,-412L2193,59L2368,111Z" fill="#9a7dbc" stroke="#9a7dbc" stroke-width="1.51"/><path d="M2959,832L2948,387L2518,653Z" fill="#6d4fa0" stroke="#6d4fa0" stroke-width="1.51"/><path d="M2378,-412L2368,111L2879,-127Z" fill="#9676b8" stroke="#9676b8" stroke-width="1.51"/><path d="M2797,1645L2927,1507L2843,1162Z" fill="#471183" stroke="#471183" stroke-width="1.51"/><path d="M2879,-127L2368,111L2445,175Z" fill="#8e6fb3" stroke="#8e6fb3" stroke-width="1.51"/><path d="M323,1123L49,1313L452,1291Z" fill="#9883bf" stroke="#9883bf" stroke-width="1.51"/><path d="M-89,718L323,1123L345,775Z" fill="#a9a4cf" stroke="#a9a4cf" stroke-width="1.51"/><path d="M2948,387L2879,-127L2445,175Z" fill="#8869b0" stroke="#8869b0" stroke-width="1.51"/><path d="M49,1313L269,1847L452,1291Z" fill="#9174b7" stroke="#9174b7" stroke-width="1.51"/><path d="M329,399L-89,718L345,775Z" fill="#b5b2d6" stroke="#b5b2d6" stroke-width="1.51"/><path d="M-285,309L-89,718L329,399Z" fill="#c3c1de" stroke="#c3c1de" stroke-width="1.51"/><path d="M1001,-205L512,-438L751,96Z" fill="#cac8e1" stroke="#cac8e1" stroke-width="1.51"/><path d="M1744,-439L512,-438L1179,-213Z" fill="#c2bedc" stroke="#c2bedc" stroke-width="1.51"/><path d="M2024,-513L512,-438L1744,-439Z" fill="#bbb4d9" stroke="#bbb4d9" stroke-width="1.51"/><path d="M512,-438L81,43L751,96Z" fill="#d2d2e7" stroke="#d2d2e7" stroke-width="1.51"/><path d="M81,43L-37,87L329,399Z" fill="#d0d0e6" stroke="#d0d0e6" stroke-width="1.51"/><path d="M81,-244L-37,87L81,43Z" fill="#dedded" stroke="#dedded" stroke-width="1.51"/><path d="M49,1313L-224,1623L269,1847Z" fill="#9474b7" stroke="#9474b7" stroke-width="1.51"/><path d="M-89,718L-217,999L323,1123Z" fill="#aca2cf" stroke="#aca2cf" stroke-width="1.51"/><path d="M-651,663L-217,999L-89,718Z" fill="#bab5d9" stroke="#bab5d9" stroke-width="1.51"/><path d="M512,-438L81,-244L81,43Z" fill="#dfdeed" stroke="#dfdeed" stroke-width="1.51"/><path d="M2948,387L2945,-451L2879,-127Z" fill="#9272b5" stroke="#9272b5" stroke-width="1.51"/><path d="M2879,-127L2945,-451L2378,-412Z" fill="#9c7ab9" stroke="#9c7ab9" stroke-width="1.51"/><path d="M2378,-412L2945,-451L2024,-513Z" fill="#a282bf" stroke="#a282bf" stroke-width="1.51"/><path d="M2959,832L2945,-451L2948,387Z" fill="#8263ad" stroke="#8263ad" stroke-width="1.51"/><path d="M-476,-9L-285,309L-37,87Z" fill="#dddced" stroke="#dddced" stroke-width="1.51"/><path d="M-37,87L-285,309L329,399Z" fill="#cecee5" stroke="#cecee5" stroke-width="1.51"/><path d="M-217,999L-342,1217L49,1313Z" fill="#a793c7" stroke="#a793c7" stroke-width="1.51"/><path d="M-651,663L-342,1217L-217,999Z" fill="#b4a9d3" stroke="#b4a9d3" stroke-width="1.51"/><path d="M-342,1217L-224,1623L49,1313Z" fill="#a083c0" stroke="#a083c0" stroke-width="1.51"/><path d="M-511,1845L-223,1711L-224,1623Z" fill="#9c7ab9" stroke="#9c7ab9" stroke-width="1.51"/><path d="M-224,1623L-223,1711L269,1847Z" fill="#9574b6" stroke="#9574b6" stroke-width="1.51"/><path d="M512,-438L-82,-319L81,-244Z" fill="#e5e4f0" stroke="#e5e4f0" stroke-width="1.51"/><path d="M81,-244L-82,-319L-37,87Z" fill="#e4e2f0" stroke="#e4e2f0" stroke-width="1.51"/><path d="M-82,-319L-331,-237L-37,87Z" fill="#e7e5f1" stroke="#e7e5f1" stroke-width="1.51"/><path d="M-285,309L-651,663L-89,718Z" fill="#c6c2de" stroke="#c6c2de" stroke-width="1.51"/><path d="M-331,-237L-476,-9L-37,87Z" fill="#e6e5f1" stroke="#e6e5f1" stroke-width="1.51"/><path d="M-617,421L-651,663L-285,309Z" fill="#cecce4" stroke="#cecce4" stroke-width="1.51"/><path d="M-342,1217L-639,1325L-224,1623Z" fill="#a587c2" stroke="#a587c2" stroke-width="1.51"/><path d="M-476,-9L-617,421L-285,309Z" fill="#dad9eb" stroke="#dad9eb" stroke-width="1.51"/><path d="M-651,663L-639,1325L-342,1217Z" fill="#b3a2d0" stroke="#b3a2d0" stroke-width="1.51"/><path d="M-639,1325L-511,1845L-224,1623Z" fill="#9f7dbc" stroke="#9f7dbc" stroke-width="1.51"/><path d="M-223,1711L-511,1845L269,1847Z" fill="#9876b7" stroke="#9876b7" stroke-width="1.51"/><path d="M269,1847L-511,1845L767,1918Z" fill="#8f6fb3" stroke="#8f6fb3" stroke-width="1.51"/></svg>